<?xml version="1.0" standalone="no"?>
<!DOCTYPE svg PUBLIC "-//W3C//DTD SVG 20010904//EN"
 "http://www.w3.org/TR/2001/REC-SVG-20010904/DTD/svg10.dtd">
<svg version="1.0" xmlns="http://www.w3.org/2000/svg"
 width="700.000000pt" height="700.000000pt" viewBox="0 0 700.000000 700.000000"
 preserveAspectRatio="xMidYMid meet">
<metadata>
Created by potrace 1.14, written by Peter Selinger 2001-2017
</metadata>
<g transform="translate(0.000000,700.000000) scale(0.100000,-0.100000)"
fill="#000000" stroke="none">
<path d="M3337 6904 c-1 -1 -49 -4 -107 -8 -58 -3 -114 -8 -125 -10 -11 -2
-47 -7 -80 -10 -92 -11 -298 -53 -420 -87 -368 -101 -661 -234 -980 -444 -441
-290 -813 -683 -1073 -1130 -42 -73 -172 -329 -172 -339 0 -3 -13 -34 -29 -68
-54 -120 -152 -429 -177 -558 -3 -14 -7 -32 -9 -40 -6 -20 -32 -172 -41 -235
-3 -27 -8 -58 -10 -69 -20 -108 -23 -589 -5 -761 103 -943 575 -1781 1333
-2363 440 -339 1025 -581 1581 -657 27 -4 58 -8 69 -10 123 -24 695 -24 819 0
12 2 42 7 68 10 25 3 71 9 101 15 30 5 66 11 80 14 150 25 444 114 622 187
874 359 1547 1041 1891 1914 74 187 159 484 182 635 4 25 9 53 11 64 2 10 6
44 10 75 3 31 8 65 10 76 23 119 23 679 0 801 -2 10 -7 42 -10 69 -23 173 -79
416 -137 589 -294 876 -901 1577 -1718 1986 -326 163 -728 288 -1047 326 -27
3 -62 7 -79 10 -88 11 -189 16 -363 18 -106 1 -194 1 -195 0z"/>
</g>
</svg>
